# xmcd CD database file
#
# Track frame offsets:
#	150
#	12414
#	29196
#	39167
#	56142
#	70246
#	89451
#	105180
#	125330
#	141491
#
# Disc length: 2233 seconds
#
# Revision: 0
# Processed by: cddbd v1.5.1PL0 Copyright (c) Steve Scherf et al.
# Submitted via: CDex 1.40Release
#
DISCID=8a08b70a
DTITLE=Hacksaw Harney - Sweet Man
DYEAR=1900
DGENRE=Blues
TTITLE0=Ragtime Blues
TTITLE1=12 Pound Rag #2
TTITLE2=Five Foot Two
TTITLE3=Adelphi Ramble
TTITLE4=Laughing Pallet
TTITLE5=Little Rock Blues II
TTITLE6=Home Skeen Ball
TTITLE7=Sweet Man
TTITLE8=Oh Red
TTITLE9=The Delta Eagle
EXTD=ID3G: 0
EXTT0=
EXTT1=
EXTT2=
EXTT3=
EXTT4=
EXTT5=
EXTT6=
EXTT7=
EXTT8=
EXTT9=
PLAYORDER=
